<?xml version="1.0" encoding="utf-8"?>
<!-- Generator: Adobe Illustrator 25.2.3, SVG Export Plug-In . SVG Version: 6.00 Build 0)  -->
<svg version="1.1" id="Layer_1" xmlns="http://www.w3.org/2000/svg" xmlns:xlink="http://www.w3.org/1999/xlink" x="0px" y="0px"
	 viewBox="0 0 239 239" style="enable-background:new 0 0 239 239;" xml:space="preserve">
<style type="text/css">
	.st0{fill:#FFFFFF;}
</style>
<g>
	<path class="st0" d="M167.8,36.6c-22.3-0.2-44.6-1.1-66.9-0.5c-25.9,0.6-46,2.2-61.3,22.9c-4,9.9-6,21.4-7,33.4
		c-0.2,3.2-0.4,6.4-0.6,9.8c-0.8,20.4,0.5,41.4,0.1,58.1c2.2,11,6.4,20.8,14.3,28.3c26.1,24.9,79.3,17.1,114.1,15.8
		c16.7-6.1,30.7-11.1,38.1-30.3c5.9-15,4.9-34.2,5.4-50.3C204.8,90.5,206.3,44.7,167.8,36.6z"/>
	<path class="st0" d="M157.6,48.4c44.5,5.7,31.4,70.2,30.2,101.5c-0.7,17.2-3.8,30.5-21.5,36.4c-23.3,7.8-57.7,5.2-81.5,1.7
		c-15.9-2.3-28.4-7.1-32.8-23.6c-7-26.1-5-61.4-2-88c0.1-0.5,0.2-0.9,0.5-1.2C50.9,35.5,134.4,45.4,157.6,48.4z"/>
	<path class="st0" d="M176.1,72.6c0.1-11-13.6-14.4-20.9-7.7c-2,1.8-2.9,4.6-3,7.7c0.7,3.9,3.1,7.7,6.1,9.9
		C165.3,87.5,176,80.9,176.1,72.6z"/>
	<path class="st0" d="M155.8,93.9c-15.7-23.7-51.1-26.1-70.1-5c-13,14.3-13.9,38.2-4.1,55.2c0.6,0.2,1.1,0.5,1.5,1.1
		c15.9,17.7,43.2,24.1,62.8,8.1C163.4,138.9,168.5,113.2,155.8,93.9z"/>
	<path class="st0" d="M93.3,126.5c5.5,15.6,25.3,28,41,18.3c31.8-19.4-5.5-72.2-31.7-48.8C93.3,101.5,89.7,116.3,93.3,126.5z"/>
</g>
</svg>
