<?xml version="1.0" encoding="utf-8"?>
<!-- Generator: Adobe Illustrator 25.2.3, SVG Export Plug-In . SVG Version: 6.00 Build 0)  -->
<svg version="1.1" id="Слой_1" xmlns="http://www.w3.org/2000/svg" xmlns:xlink="http://www.w3.org/1999/xlink" x="0px" y="0px"
	 viewBox="0 0 24 24" style="enable-background:new 0 0 24 24;" xml:space="preserve">
<style type="text/css">
	.st0{fill:#FFFFFF;}
</style>
<g>
	<path class="st0" d="M7.3,18.5L8,18.9c1.2,0.7,2.6,1.1,4,1.1c4.4,0,8-3.6,8-8s-3.6-8-8-8s-8,3.6-8,8c0,1.4,0.4,2.8,1.1,4l0.4,0.7
		l-0.7,2.4C4.9,19.1,7.3,18.5,7.3,18.5z M2,22l1.4-5C2.5,15.5,2,13.8,2,12C2,6.5,6.5,2,12,2s10,4.5,10,10s-4.5,10-10,10
		c-1.8,0-3.5-0.5-5-1.4L2,22z M8.4,7.3c0.1,0,0.3,0,0.4,0c0.1,0,0.1,0,0.2,0c0.2,0,0.3,0.1,0.4,0.2c0.3,0.7,0.6,1.4,0.9,2
		c0.1,0.2,0,0.3-0.1,0.5c-0.1,0.1-0.2,0.3-0.3,0.4c-0.1,0.1-0.4,0.4-0.4,0.4S9.4,11,9.4,11.2c0,0.1,0.1,0.1,0.1,0.2l0.1,0.1
		c0.3,0.4,0.6,0.9,1,1.3c0.1,0.1,0.2,0.2,0.4,0.3c0.5,0.4,1,0.8,1.6,1l0,0c0.1,0,0.1,0.1,0.3,0.1c0.1,0,0.1,0,0.2,0.1
		c0.1,0,0.3,0,0.4-0.1c0.7-0.9,0.8-0.9,0.8-0.9v0c0.1-0.1,0.2-0.1,0.4-0.1c0.1,0,0.1,0,0.2,0c0.5,0.2,1.4,0.6,1.4,0.6l0.6,0.3
		c0.1,0,0.2,0.2,0.2,0.3c0,0.1,0,0.2,0,0.4c0,0.3-0.1,0.6-0.2,0.7c-0.1,0.1-0.1,0.2-0.2,0.3c-0.1,0.1-0.2,0.2-0.3,0.3
		c0,0-0.1,0.1-0.1,0.1c-0.1,0.1-0.3,0.2-0.4,0.2c-0.3,0.1-0.5,0.2-0.8,0.2c-0.2,0-0.4,0-0.6,0c0,0-0.6-0.1-0.6-0.1
		c-1.4-0.4-2.7-1.1-3.8-2c-0.2-0.2-0.4-0.4-0.6-0.6c-0.9-0.9-1.6-1.8-2-2.7C7,10.6,6.9,10.1,6.9,9.6c0-0.6,0.2-1.2,0.6-1.7
		c0.1-0.1,0.1-0.2,0.3-0.3C7.9,7.5,7.9,7.5,8,7.4C8.1,7.3,8.3,7.3,8.4,7.3L8.4,7.3z"/>
</g>
</svg>
